PathFileType	4	(X/Y/Z)	D:\Share\Shared_Data\Ergonomics\Sit To Stand Pertubation\S3\S3 Cal 01.trc
DataRate	CameraRate	NumFrames	NumMarkers	Units	OrigDataRate	OrigDataStartFrame	OrigNumFrames	
100	100	13	21	mm	100	77	204
Frame#	Time	R_ASIS			R_Pelvis			V_Sacral			L_Pelvis			L_ASIS			Clavical			R_Acromium			L_Acromium			Sternum			Torso			R_Thigh_Med			R_Thigh_Lat			R_Thigh			R_Shank_Med			R_Shank_Lat			R_Shank			R_Heel			R_Toe			RAJC			RHJC			RKJC			
		X1	Y1	Z1	X2	Y2	Z2	X3	Y3	Z3	X4	Y4	Z4	X5	Y5	Z5	X6	Y6	Z6	X7	Y7	Z7	X8	Y8	Z8	X9	Y9	Z9	X10	Y10	Z10	X11	Y11	Z11	X12	Y12	Z12	X13	Y13	Z13	X14	Y14	Z14	X15	Y15	Z15	X16	Y16	Z16	X17	Y17	Z17	X18	Y18	Z18	X19	Y19	Z19	X20	Y20	Z20	X21	Y21	Z21	

77	0.76	306.91663	940.89417	127.78711	196.48987	954.89264	179.50522	93.483459	991.51483	-13.669343	205.77722	963.6886	-207.52344	307.42465	931.17523	-155.73381	272.90933	1376.3368	-13.415147	189.83009	1426.3445	150.69588	215.62646	1427.4073	-168.6631	306.01022	1303.4398	-7.9685349	279.88281	1362.5726	-80.329811	257.07788	468.9325	32.011978	225.21732	457.08954	130.95494	313.61075	661.78613	90.316719	181.19209	104.9629	73.181084	165.9469	98.679268	153.72696	165.10687	284.87369	157.9933	110.31322	56.366344	114.80457	328.00781	56.005207	103.76579	173.569495	101.821084	113.454022	222.0104831	862.3941901	89.37485998	241.1476	463.01102	81.483459
78	0.77	306.99243	940.87421	127.76781	196.55133	954.901	179.50742	93.54174	991.50067	-13.654841	205.79712	963.67468	-207.55782	307.44305	931.15387	-155.75633	273.01187	1376.2708	-13.43802	189.91158	1426.3278	150.6922	215.69272	1427.3815	-168.6593	306.08228	1303.4272	-7.9843354	279.95749	1362.5236	-80.3386	257.06378	469.00742	32.003258	225.20172	457.09555	130.97672	313.6463	661.75671	90.285149	181.18478	104.99711	73.259392	165.94505	98.685272	153.68507	165.09398	284.88071	158.02301	110.31314	56.356415	114.82446	328.00058	56.006851	103.74647	173.564915	101.841191	113.472231	222.077133	862.376155	89.3724962	241.13275	463.051485	81.489989
79	0.78	307.15048	940.85468	127.76804	196.6817	954.9079	179.51117	93.621239	991.54895	-13.678551	205.81786	963.66974	-207.57608	307.48608	931.12	-155.7872	273.11813	1376.2711	-13.44212	189.9987	1426.2921	150.69817	215.78212	1427.3656	-168.65179	306.20374	1303.4021	-7.9835773	280.04425	1362.4735	-80.36718	256.99786	468.92627	31.971493	225.10936	457.09366	130.92528	313.65976	661.74097	90.246315	181.18265	104.99066	73.218658	165.96526	98.743607	153.63014	165.07814	284.8848	158.00815	110.31523	56.350647	114.7999	328.00342	55.9972	103.75937	173.573955	101.8671335	113.424399	222.183603	862.3749163	89.40478508	241.05361	463.009965	81.4483865
80	0.79	307.26303	940.85455	127.77552	196.75551	954.90643	179.50943	93.696808	991.57874	-13.643705	205.84503	963.67242	-207.57372	307.51288	931.09692	-155.8318	273.22647	1376.2509	-13.471229	190.08334	1426.2688	150.67093	215.88026	1427.3501	-168.64528	306.29236	1303.399	-8.0238571	280.10034	1362.4381	-80.387505	256.94644	468.91541	31.97341	225.08557	457.08627	130.93867	313.65222	661.68341	90.199554	181.17299	104.96445	73.179802	165.95274	98.712669	153.65353	165.03496	284.89969	157.99751	110.3055	56.365158	114.827	328.0141	56.011784	103.75564	173.562865	101.8385595	113.416666	222.2648953	862.3726525	89.43481073	241.016005	463.00084	81.45604
81	0.8	307.30414	940.84424	127.71858	196.88405	954.91675	179.50717	93.767746	991.58093	-13.609277	205.8374	963.66528	-207.62065	307.52292	931.07678	-155.868	273.32507	1376.2253	-13.475867	190.20088	1426.2579	150.68492	215.95946	1427.3142	-168.67104	306.41772	1303.3751	-8.0557051	280.19452	1362.3921	-80.394539	257.22693	468.78381	31.963051	225.01199	457.10223	130.90176	313.66666	661.66663	90.145241	181.16855	105.01749	73.297974	166.0332	98.749001	153.36049	164.99139	284.88754	157.97354	110.3119	56.371281	114.81156	328.02008	56.009079	103.7663	173.600875	101.8832455	113.329232	222.3033163	862.3746947	89.39309209	241.11946	462.94302	81.4324055
82	0.81	307.38	940.84955	127.67101	196.96765	954.93396	179.50732	93.827469	991.56726	-13.592122	205.84441	963.6347	-207.66217	307.55057	931.05035	-155.91084	273.38104	1376.2697	-13.446622	190.29584	1426.2402	150.65201	216.04694	1427.272	-168.67741	306.50797	1303.3392	-8.0740185	280.27502	1362.3523	-80.420044	257.19379	468.74872	31.954355	224.96518	457.08945	130.88852	313.66376	661.6499	90.117294	181.19162	104.97762	73.178253	165.97859	98.744362	153.63884	164.97072	284.88385	157.98921	110.3135	56.338306	114.78072	328.01477	55.995213	103.74504	173.585105	101.860991	113.4085465	222.3756309	862.3754528	89.369424	241.079485	462.919085	81.4214375
83	0.82	307.44455	940.83771	127.6174	197.05206	954.94189	179.51169	93.867134	991.62378	-13.642188	205.84436	963.62927	-207.6963	307.55475	931.03851	-155.94443	273.49081	1376.248	-13.469604	190.51822	1426.3352	150.70486	216.12329	1427.248	-168.69322	306.61661	1303.3253	-8.1082239	280.36359	1362.3	-80.456711	257.09482	468.74075	31.950735	224.90634	457.10605	130.84634	313.67883	661.61426	90.071098	181.16797	104.95438	73.147934	165.97462	98.729042	153.65195	164.91725	284.88754	157.97784	110.31948	56.360714	114.8021	328.02097	55.998238	103.76248	173.571295	101.841711	113.399942	222.4065881	862.3968033	89.33634848	241.00058	462.9234	81.3985375
84	0.83	307.52124	940.82642	127.58133	197.11168	954.95233	179.48854	93.918205	991.65741	-13.664456	205.84485	963.62787	-207.70273	307.5661	931.02319	-155.98901	273.61508	1376.23	-13.493533	190.63991	1426.327	150.68149	216.20734	1427.2307	-168.69228	306.72455	1303.2983	-8.149909	280.46725	1362.2499	-80.463181	256.95041	468.59293	31.990536	224.85817	457.10861	130.86188	313.67484	661.59686	90.038811	181.2034	105.03545	73.335403	165.98717	98.729446	153.66205	164.89978	284.89081	157.99521	110.31323	56.383846	114.82876	328.01239	56.00111	103.77534	173.595285	101.882448	113.4987265	222.4558234	862.4013032	89.31887365	240.90429	462.85077	81.426208
85	0.84	307.57617	940.82855	127.53318	197.25648	954.96802	179.48169	93.96579	991.67383	-13.624011	205.83253	963.62134	-207.7368	307.56769	930.99835	-156.03535	273.72772	1376.224	-13.511226	190.6313	1426.2106	150.5816	216.29787	1427.2039	-168.71524	306.84747	1303.2512	-8.2169456	280.58881	1362.1902	-80.486595	256.92593	468.50098	31.952776	224.78996	457.11121	130.82288	313.67633	661.5882	90.02726	181.16133	105.04295	73.366508	165.95285	98.763771	153.62317	164.90289	284.89594	158.00142	110.31186	56.368488	114.79263	328.00656	55.993225	103.75556	173.55709	101.9033605	113.494839	222.4958533	862.4108693	89.29395857	240.857945	462.806095	81.387828
86	0.85	307.62732	940.82263	127.47593	197.28694	954.98798	179.43808	94.005707	991.71497	-13.59634	205.81863	963.604	-207.74744	307.54169	930.99359	-156.07866	273.86884	1376.2136	-13.543549	190.73338	1426.1866	150.52878	216.3978	1427.1864	-168.74071	306.98242	1303.2159	-8.2582188	280.6925	1362.1658	-80.531578	256.95047	468.63644	31.955723	224.75189	457.11313	130.81665	313.69315	661.57385	90.001518	181.11749	105.01753	73.339447	165.94322	98.726074	153.66467	164.87369	284.89938	157.99577	110.32794	56.360722	114.80419	328.01581	55.993454	103.75903	173.530355	101.871802	113.5020585	222.5231729	862.4279978	89.26125457	240.85118	462.874785	81.3861865
87	0.86	307.68686	940.82532	127.45586	197.35532	954.99323	179.43057	94.041466	991.7558	-13.644114	205.81445	963.60254	-207.74249	307.53613	930.97272	-156.12274	274.00525	1376.2401	-13.52288	190.86836	1426.1704	150.50557	216.47725	1427.1881	-168.76097	307.09769	1303.1915	-8.3160009	280.79883	1362.1116	-80.562157	256.86679	468.53705	31.953249	224.70685	457.11954	130.79031	313.68634	661.54797	89.972252	181.14832	105.00993	73.317253	165.91144	98.760757	153.66699	164.85437	284.89398	157.97417	110.29101	56.41328	114.7936	328.02768	55.996044	103.78044	173.52988	101.8853435	113.4921215	222.5528187	862.4407235	89.26232664	240.78682	462.828295	81.3717795
88	0.87	307.73355	940.8313	127.40308	197.40477	955.00323	179.41257	94.057869	991.75262	-13.640713	205.78177	963.58978	-207.77538	307.49152	930.95227	-156.17059	274.13336	1376.2336	-13.585675	191.02449	1426.1733	150.4704	216.54576	1427.1716	-168.81906	307.24429	1303.1978	-8.3314276	280.88358	1362.1014	-80.617668	256.85568	468.57098	31.905136	224.70085	457.12924	130.78021	313.66425	661.5304	89.922821	181.12996	104.96217	73.213478	165.94154	98.733429	153.71825	164.86771	284.89127	157.99158	110.2648	56.397675	114.78868	328.02298	55.998081	103.75697	173.53575	101.8477995	113.465864	222.5878937	862.446554	89.24485393	240.778265	462.85011	81.342673
89	0.88	307.81458	940.83429	127.37225	197.42554	955.00568	179.38258	94.073997	991.75122	-13.630796	205.75905	963.5791	-207.77762	307.45679	930.93243	-156.20963	274.21732	1376.2198	-13.626082	191.14095	1426.1462	150.44228	216.58838	1427.1735	-168.90311	307.35922	1303.1997	-8.3806372	280.9726	1362.072	-80.669426	256.85489	468.55899	31.861048	224.68997	457.11899	130.79504	313.61816	661.53558	89.875549	181.11311	104.99686	73.320244	165.93788	98.721497	153.73174	164.8345	284.90167	157.98151	110.27454	56.37952	114.75815	328.00739	55.984261	103.74578	173.525495	101.8591785	113.525992	222.6484848	862.4467219	89.25345157	240.77243	462.83899	81.328044
